<?xml version="1.0" ?><!DOCTYPE svg  PUBLIC '-//W3C//DTD SVG 1.1//EN'  'http://www.w3.org/Graphics/SVG/1.1/DTD/svg11.dtd'><svg height="512px" style="enable-background:new 0 0 512 512;" version="1.1" viewBox="0 0 512 512" width="512px" xml:space="preserve" xmlns="http://www.w3.org/2000/svg" xmlns:xlink="http://www.w3.org/1999/xlink"><g id="comp_x5F_364-vk"><g><path d="    M467.481,142.221c3.045-10.283,0-17.852-14.644-17.852h-48.457c-12.34,0-18.018,6.499-21.061,13.739    c0,0-24.68,60.138-59.563,99.133c-11.27,11.271-16.453,14.891-22.623,14.891c-3.042,0-7.733-3.621-7.733-13.904v-96.008    c0-12.34-3.456-17.852-13.657-17.852h-76.18c-7.733,0-12.34,5.759-12.34,11.106c0,11.681,17.441,14.396,19.251,47.304v71.41    c0,15.631-2.798,18.509-8.967,18.509c-16.454,0-56.437-60.384-80.13-129.49c-4.771-13.409-9.461-18.839-21.884-18.839H51.037    c-13.821,0-16.619,6.499-16.619,13.739c0,12.833,16.454,76.593,76.593,160.836c40.065,57.505,96.502,88.687,147.836,88.687    c30.851,0,34.636-6.91,34.636-18.839c0-54.957-2.797-60.141,12.671-60.141c7.156,0,19.497,3.619,48.293,31.344    c32.905,32.908,38.335,47.636,56.764,47.636h48.456c13.821,0,20.815-6.91,16.783-20.569c-9.214-28.71-71.492-87.78-74.289-91.729    c-7.157-9.215-5.102-13.329,0-21.557C402.243,253.696,461.394,170.439,467.481,142.221L467.481,142.221z" style="fill:none;stroke:#000000;stroke-width:20;stroke-linecap:round;stroke-linejoin:round;stroke-miterlimit:10;"/></g></g><g id="Layer_1"/></svg>